<svg xmlns="http://www.w3.org/2000/svg" viewBox="0 0 50 50">
<path d="M10.3588 1.7265c-.1492 0-.3026.0151-.4594.0382c-.5936-1.0479-1.7057-1.7647-2.9935-1.7647s-2.4.7168-2.9935 1.7647c-.1568-.0231-.3102-.0382-.4594-.0382c-1.9039 0-3.4529 1.5486-3.4529 3.4529c0 1.2443.6546 2.3621 1.7265 2.98v4.3575c0 .714.5808 1.2949 1.2949 1.2949h7.7691c.714 0 1.2949-.5808 1.2949-1.2949v-4.3575c1.0719-.6179 1.7265-1.7357 1.7265-2.98c-0-1.9043-1.549-3.4529-3.4529-3.4529zm.4316 11.222h-7.7691c-.2382 0-.4316-.1939-.4316-.4316v-1.2949h8.6324v1.2949c0 .2377-.1935.4316-.4316.4316zm.677-5.439c-.1496.0717-.2453.2234-.2453.3895v2.4599h-8.6324v-2.4599c0-.1661-.0957-.3178-.2453-.3895c-.9138-.4367-1.4811-1.3294-1.4811-2.33c0-1.4281 1.1617-2.5897 2.5897-2.5897c.0367 0 .0804.0129.118.0149c-.0696.273-.118.554-.118.8484c0 .2386.193.4316.4316.4316s.4316-.193.4316-.4316c0-1.4281 1.1617-2.5897 2.5897-2.5897s2.5897 1.1617 2.5897 2.5897c0 .2386.193.4316.4316.4316s.4316-.193.4316-.4316c0-.2944-.0484-.5754-.118-.8484c.0376-.0019.0813-.0149.118-.0149c1.4281 0 2.5897 1.1617 2.5897 2.5897c0 1.0006-.5674 1.8934-1.4811 2.33z"/>
</svg>

